<svg width="81" height="80" viewBox="0 0 81 80" fill="none" xmlns="http://www.w3.org/2000/svg"><path d="M31.7206 32.3407l-10.5313-1.28-.8015 9.7259.9755 9.3571 10.1158-.7948 4.9495 2.7096 5.4303 2.3666 7.3072.2865 6.6624.191 2.0776-2.2924-.5493-2.2208-.2865-1.3134 2.8178-1.8626.4298-2.7223-2.0059-1.8865 1.7671-1.6716v-2.3402l-1.5283-2.0775 1.7671-2.5791-.4537-2.0775-1.6716-1.5044-8.5967-.1433-1.4089 1.3373-1.3372-1.194-.4087-1.2719 2.211-3.6074 1.7455-4.8293v-3.8983l-1.7455-1.3963-2.211.4655-2.3274 5.8765-5.4111 7.3893-4.0728 2.7928-2.9092.4655z" fill="#fff"/><path d="M21.6067 50.268l7.8873-.887c.0168 0 .0363-.0028.053-.0028 1.2899-.0058 2.4963-.0601 3.672.4349 1.1757.4979 2.1285.9843 3.0507 1.9199.4653.4693 1.1562.8327 1.6912 1.1989 1.6047 1.0845 3.502 1.671 5.4495 1.6625h.8748M48.8431 54.5571l-4.5607.0344M21.3086 31.0943s7.7926 1.0816 11.3671 1.1445c1.4181.0258 4.2682-1.4278 5.5387-2.8928 1.4404-1.6596 3.0953-3.5652 4.3936-5.5081 3.3293-4.9758 2.5353-8.4437 6.0011-8.4437 3.0062 0 2.4768 6.5467-.6825 10.7986-2.7833 3.7484-.6993 4.9558.5237 4.9558" stroke="#222" stroke-width="1.5" stroke-linecap="round" stroke-linejoin="round"/><path d="M31.7814 53.361c-1.1757 4.438-2.917 7.2449-4.87 7.2449-2.5409 0-4.7307-4.7641-5.7644-11.6627-.4095-2.6983-.6324-5.7227-.6324-8.9188 0-3.1961.2229-6.2205.6324-8.9188 1.0337-6.9015 3.2235-11.6627 5.7644-11.6627 1.9335 0 3.672 2.7697 4.8449 7.1418M57.2153 42.6312h-9.7261c-1.6557 0-2.9978 1.3784-2.9978 3.0788 0 1.7004 1.3421 3.0788 2.9978 3.0788h9.7261c1.6556 0 2.9978-1.3784 2.9978-3.0788 0-1.7004-1.3422-3.0788-2.9978-3.0788zM54.8109 48.7888h-4.3128c-1.6556 0-2.9978 1.3784-2.9978 3.0788 0 1.7004 1.3422 3.0788 2.9978 3.0788h4.3128c1.6556 0 2.9978-1.3784 2.9978-3.0788 0-1.7004-1.3422-3.0788-2.9978-3.0788z" stroke="#222" stroke-width="1.5" stroke-linecap="round" stroke-linejoin="round"/><path d="M57.2153 36.4764h-9.7261c-1.6557 0-2.9978 1.3785-2.9978 3.0788 0 1.7004 1.3421 3.0788 2.9978 3.0788h9.7261c1.6556 0 2.9978-1.3784 2.9978-3.0788 0-1.7003-1.3422-3.0788-2.9978-3.0788zM57.2181 30.3188h-6.72c-1.6556 0-2.9978 1.3785-2.9978 3.0788 0 1.7004 1.3422 3.0788 2.9978 3.0788h6.72c1.6556 0 2.9977-1.3784 2.9977-3.0788 0-1.7003-1.3421-3.0788-2.9977-3.0788z" stroke="#222" stroke-width="1.5" stroke-linecap="round" stroke-linejoin="round"/></svg>