<svg width="81" height="80" viewBox="0 0 81 80" fill="none" xmlns="http://www.w3.org/2000/svg"><path d="M10.498 31.5764H3.78975l-.53908 9.9427.53908 7.5468h8.38535l6.1094 1.138 4.552 3.8334 4.5521 1.138H39.188l2.9349-1.138.5391-2.3959-1.6172-2.5755h2.0364l2.0964-1.2578-.4792-3.0547-1.1979-1.4375 4.1927-.539 1.3776-2.6953-1.8568-2.3958-2.0364-.4193 2.0364-2.0364-.2995-2.5157-1.7369-1.138-4.1328-.3594v-2.5156l-2.4557-2.3957h-7.9063l-7.427.4192-2.8151 1.9765-3.3541 2.875H10.498zM52.1603 51.3421l-1.1694-2.7041-.1724-21.538-1.1366-.2099-.0643-1.0677 1.3733-.4599 26.1769.2721v.762l-.8905.1386v19.6181l-.7308 4.3849-3.6541 2.3386H55.449l-3.2887-1.5347z" fill="#fff"/><path d="M49.8282 25.5166h27.1913c.3193 0 .5764.3045.5764.6812 0 .3766-.2571.6811-.5764.6811H49.8282c-.3194 0-.5765-.3045-.5765-.6811 0-.3767.2571-.6812.5765-.6812z" stroke="#222" stroke-width="1.2" stroke-linecap="round" stroke-linejoin="round"/><path d="M50.7971 27.1255v20.6213c0 2.7086 2.2327 4.9017 4.9852 4.9017h15.283c2.7525 0 4.9853-2.1957 4.9853-4.9017V27.1511M44.1745 43.5209c2.2761 3.9481 5.1584 4.656 6.4981 4.6292M50.7971 28.8984c-.1786-.0214-8.3628-.3286-8.3628 2.4255M36.7914 37.3903h7.5888c1.6645 0 3.0122-1.325 3.0122-2.9624 0-1.6348-1.3477-2.9624-3.0122-2.9624H29.5626M36.7914 37.3903h9.034c1.6645 0 3.0123 1.3249 3.0123 2.9624 0 1.6348-1.3478 2.9624-3.0123 2.9624h-9.034" stroke="#222" stroke-width="1.5" stroke-linecap="round" stroke-linejoin="round"/><path d="M36.7914 43.3151h5.421c1.6644 0 3.0122 1.3249 3.0122 2.9624 0 1.6348-1.3478 2.9624-3.0122 2.9624h-5.421" stroke="#222" stroke-width="1.5" stroke-linecap="round" stroke-linejoin="round"/><path d="M36.7914 49.2373h3.0123c1.6671 0 3.0122 1.3223 3.0122 2.9624 0 .8174-.3356 1.56-.8823 2.0943-.5413.5396-1.2991.8681-2.1272.8681H28.2825c-2.0406 0-4.0299-.5983-5.7024-1.6989-.563-.3686-1.0853-.7907-1.567-1.2635-.9635-.9483-2.1002-1.6855-3.3316-2.1931-1.2368-.5075-2.5711-.7693-3.9351-.7693H3.91669M3.91669 31.4681H15.649c1.4858 0 2.9039-.6437 3.862-1.771l.5765-.6652c.6901-.804 1.5318-1.4478 2.4682-1.8965 1.0312-.5076 2.1814-.7774 3.3668-.7774h11.3047c2.0298 0 3.6753 1.6161 3.6753 3.6062v1.4398M53.111 38.2771v8.922c0 1.8404 1.5156 3.331 3.3857 3.331h13.8514c1.8702 0 3.3858-1.4906 3.3858-3.331v-8.922H53.111v0z" stroke="#222" stroke-width="1.5" stroke-linecap="round" stroke-linejoin="round"/><path d="M14.948 53.4338c-1.2314 4.469-3.0582 7.3005-5.107 7.3005-2.6631 0-4.95814-4.7976-6.04341-11.7481-.42761-2.7194-.66307-5.7646-.66307-8.9834 0-3.2189.23546-6.2668.66307-8.9834 1.08527-6.956 3.38301-11.7535 6.04612-11.7535 2.02709 0 3.84849 2.7914 5.07989 7.1936" stroke="#222" stroke-width="1.5" stroke-linecap="round" stroke-linejoin="round"/></svg>