<svg width="81" height="80" viewBox="0 0 81 80" fill="none" xmlns="http://www.w3.org/2000/svg"><path d="M28.1759 33.2855l-12.4286-1.4286-.5084 6.5224.7618 12.6763 7.0999-.6704 6.521.6704 5.6678 3.9309 3.1081.2742-.4571 6.3686 3.0472 3.1691h3.9004l2.9863-3.0167 1.097-6.3382 3.3214-.7618.7009-2.8948-1.4932-2.1026 2.5597-.8836.8227-3.1386-.5485-1.6455 2.712-2.4682-.8227-2.8949-1.5236-.9141 1.5236-2.3768-.8837-2.5902-2.45-.9155 1.2857-8.9999 4.2857-1.1429 3.2143-2.7142 2.8571-1.2857.9285-5.2856-1.9285-3.42864-3.9286-5.64281L54.1756 2l-5.2857 1.35715L45.39 6.28564l-1.9286.7143-1.4285 5.42866.9285.9999 2.4286 5.1428 3.4999 3.1428-1.6428 4.9286-11.4999.6428-2.8571 2.6428-4.7142 3.3572z" fill="#fff"/><path d="M46.5706 31.9702l-4.4512.0761M39.4859 55.4003l10.1629-.0338h.4698c.8076-.0056 1.5447-.3296 2.0681-.8649.5317-.5297.8581-1.2651.8553-2.0709-.0028-1.4454-1.0495-2.64-2.4282-2.871-.166-.031-.3348-.0479-.5064-.0479l.5149-.0056 1.5193-.0057c1.6151-.0056 2.9234-1.3185 2.9234-2.9273v-.0085c-.0084-1.6172-1.3252-2.9217-2.9431-2.9189h-.498l2.5801-.0141c1.6151-.0056 2.9234-1.3185 2.9234-2.9273v-.0085c-.0085-1.6172-1.3224-2.9217-2.9431-2.9189l-.7878.0057c1.5728-.0564 2.8305-1.3524 2.8249-2.9358-.0056-1.5158-1.1592-2.7527-2.6307-2.8964-.0985-.0141-.1998-.0169-.2955-.0169h-.0169l-6.4713.0253m6.491 5.8266l-.6865.0056-5.7904.0226 5.7904-.0254.7738-.0056c-.0282.0056-.0591.0056-.0901.0056l.0028-.0028z" stroke="#222" stroke-width="1.5" stroke-linecap="round" stroke-linejoin="round"/><path d="M52.6087 37.7938v.0057l-5.7904.0197 5.7904-.0254zM51.6183 43.6514l-5.3037.0225M46.8182 37.8193h-.5233M46.8604 49.5258l3.2356-.0141h.0085M51.6183 43.6514l-4.7776.0225M16.3353 51.098l8.078-.8847c1.328-.0057 2.566-.0648 3.7759.431 1.2014.4959 2.1749.9777 3.1118 1.9103.4727.4649.9482.9326 1.4941 1.296 1.6375 1.0791 3.804 1.5609 5.7932 1.5525l.8919-.0057" stroke="#222" stroke-width="1.5" stroke-linecap="round" stroke-linejoin="round"/><path d="M46.8604 49.5258l3.2356-.0141h.0085M16.0315 32.0125s8.2017 1.0763 11.851 1.1411c1.4462.0253 3.5902-1.7638 4.5187-2.8795l.5571-.6593c.6696-.7945 1.4884-1.4369 2.3972-1.882 1.0016-.5044 2.1215-.7748 3.2751-.7777l8.6378-.0169" stroke="#222" stroke-width="1.5" stroke-linecap="round" stroke-linejoin="round"/><path d="M26.7233 54.1747c-1.1986 4.415-2.9796 7.2127-4.9717 7.2127-2.5941 0-4.8282-4.7418-5.8861-11.6079-.4164-2.6851-.6443-5.697-.6443-8.8779 0-3.1809.2279-6.19.6443-8.8778 1.0551-6.869 3.292-11.608 5.8861-11.608 1.9752 0 3.7478 2.7583 4.9464 7.1085M50.6223 49.5089c0 .0171-.0057.0341-.0085.0512M38.8753 55.4003c-.3264 1.0086-.6246 1.913-.8891 2.685-.1829.5325-.2757 1.0876-.2757 1.6426 0 .9917.2926 1.9694.8497 2.8175 1.615 2.4512 4.9238 3.1048 7.352 1.4538l.1435-.1014c1.1761-.8002 1.9667-2.054 2.1777-3.4599.1998-1.3383.4784-3.0739.8047-5.0686M48.1716 25.1998s2.0258 1.6088 5.2446 1.389M61.4865 13.3981c.5139-4.24646-2.5197-8.10764-6.7759-8.62415-4.2561-.51651-8.123 2.50725-8.6369 6.75375-.514 4.2465 2.5197 8.1077 6.7758 8.6242 4.2562.5165 8.1231-2.5073 8.637-6.7538z" stroke="#222" stroke-width="1.5" stroke-linecap="round" stroke-linejoin="round"/><path d="M56.3789 2.44309c-3.9953-1.03401-8.0498.40008-10.5398 3.35279-.3799.4508-1.2043.74663-1.7979.90723-.4305.11833-.7625.45643-.8723.8875l-1.0748 4.14729c-.1182.4536.0338.927.3799 1.2425.4445.4086 1.0185 1.0932 1.2605 2.0371.9088 3.5331 3.6633 6.4802 7.4505 7.4635 3.9953 1.034 8.0497-.4001 10.5398-3.3528.3798-.4508 1.2042-.7467 1.7979-.9073.4305-.1183.7625-.4564.8722-.8875l1.0748-4.1473c.1182-.4536-.0337-.9269-.3798-1.2425-.4446-.4085-1.0185-1.0932-1.2605-2.03703-.9088-3.53311-3.6634-6.48018-7.4505-7.46348v0zM53.8635 7.69482l-4.8169 4.18678M58.7171 13.3552l-4.8198 4.1868M57.51 9.47546l-7.3661 6.39844M48.9256 21.802s-1.2549 4.3586-2.9656 10.1683M54.3615 23.0162c-.1519 1.3947-.6809 4.739-1.3843 8.9399" stroke="#222" stroke-width="1.5" stroke-linecap="round" stroke-linejoin="round"/></svg>