<svg width="81" height="80" viewBox="0 0 81 80" fill="none" xmlns="http://www.w3.org/2000/svg"><path d="M15.4741 25.7479l-9.58231-.5088-.72742 8.5579.79018 10.3909 10.07485-1.1457 4.7805 2.0544 5.2943 3.9509 9.5216.7902 6.9931-.7902v2.5681l1.2643 3.4373-2.6076 2.9632.3951 8.692 3.4768 6.7165 4.1089 3.2397 12.1293.7902 5.5313-2.8051 3.7928-5.2942 1.4619-6.6771-.4741-5.2152-2.8447-2.8051-7.8623-1.8174-3.8324-.2766-.5136-3.5163-3.1607-4.3855-5.6498-2.7261-1.2643-1.5804-1.4223-2.6866 2.2915-.7506 1.1853-2.4891-1.1853-2.5286-1.9359-.6321 1.3433-1.7779v-2.9237l-2.094-1.4618h-3.7138v-.7112l-.7902-3.1607-2.3706-1.2515-3.1607-6.4528-1.5201-.9248-1.7808.5936v3.0528l1.7808 3.7312-9.3279.5088-1.9504 2.2047-3.0527 3.0527h-3.3919z" fill="#fff"/><path d="M36.0396 31.3544h9.5306c1.6418 0 2.9721 1.3719 2.9721 3.0621 0 1.6901-1.3303 3.0621-2.9721 3.0621h-9.5306c-1.6418 0-2.9722-1.372-2.9722-3.0621 0-1.6902 1.3304-3.0621 2.9722-3.0621v0zM41.0526 25.2273h3.0938c1.6417 0 2.9721 1.372 2.9721 3.0621s-1.3304 3.0621-2.9721 3.0621h-2.6353" stroke="#222" stroke-width="1.5" stroke-linecap="round" stroke-linejoin="round"/><path d="M44.1068 43.5999h-7.5181c-1.6417 0-2.9721-1.372-2.9721-3.0621s1.3304-3.0621 2.9721-3.0621h.9511M37.9361 49.6978l-1.1351.0233c-.1019 0-.2094.0117-.3113 0-.702-.0759-1.3304-.3999-1.8003-.8844-.5378-.5576-.8718-1.3195-.8718-2.1689 0-1.696 1.3332-3.0679 2.9778-3.0679h4.6818c1.1435 0 1.9701.6538 2.3692 1.6171" stroke="#222" stroke-width="1.5" stroke-linecap="round" stroke-linejoin="round"/><path d="M42.4481 49.1461c-1.4833.3619-4.4611.575-5.1064.575h-1.8965l-4.7441-.3357c-2.0154 0-5.2848-.6188-6.935-1.7543-.5548-.3824-1.0728-.8144-1.5483-1.3048-.9511-.9808-2.0749-1.7427-3.2864-2.2682-1.2228-.5225-2.5362-.7939-3.8836-.7939l-8.61347.9837M6.55603 25.2303l10.37417.6685c1.4662 0 2.8674-.6656 3.81-1.8303l.5689-.686c.6794-.829 1.5116-2.1659 2.4372-2.6301 1.0162-.5225 2.1541-.8027 3.3231-.8027h10.0543c2.1003 0 3.8043 1.7544 3.8043 3.9203v1.3574" stroke="#222" stroke-width="1.5" stroke-linecap="round" stroke-linejoin="round"/><path d="M16.9557 48.2996c-1.2144 4.6179-3.0174 7.5457-5.0385 7.5457-2.62963 0-4.89411-4.9595-5.96408-12.1433-.42176-2.811-.65386-5.9607-.65386-9.2855 0-3.3248.2321-6.4774.65386-9.2855 1.06997-7.1868 3.33445-12.1463 5.96408-12.1463 2.0012 0 3.7987 2.8841 5.013 7.4349M42.4481 49.1461c.1273-1.226.5038-2.3761 1.1067-3.3569.1132-.1839.2095-.3737.2916-.5722" stroke="#222" stroke-width="1.5" stroke-linecap="round" stroke-linejoin="round"/><path d="M45.3239 37.7822l.9341 2.0492c.6822 1.5821 1.8059 2.2886 3.2269 2.7877 2.5617.8991 5.2791 2.4666 6.5953 5.3361 1.9984 4.3494.6114 9.3147-3.108 10.9231-3.4448 1.4887-7.7813-.6189-9.6552-4.6851-.7699-1.6697-1.0388-3.4241-.869-5.0471" stroke="#222" stroke-width="1.5" stroke-linecap="round" stroke-linejoin="round"/><path d="M41.9612 37.4874l1.6672 3.4153c.6878 1.4099.7614 3.0183.218 4.3144M33.3052 19.7745l-1.8625-3.8678c-.6227-1.2756-.2236-2.7673.8888-3.2343 1.0502-.4408 2.3268.3123 2.8646 1.5588l2.5099 5.6737M40.9337 24.2086v3.5292c0 2.3265-1.4012 3.5087-3.0514 3.5087-1.6502 0-3.609-1.1122-3.609-3.5117v-2.5687c-.9681 0-2.2362 1.3719-2.2362 3.0621 0 1.6901 1.5087 3.0621 4.3506 3.0621M72.1099 58.8345c0 1.2844.1331 4.8106-.9171 8.763-.3227 1.2172-1.203 2.3469-1.6983 3.3803-2.2843 4.7901-5.967 6.3606-12.5311 6.3606-7.62 0-11.4328-1.9353-13.5586-7.0671-.3963-.9574-1.1917-1.982-1.4464-3.0737-.8804-3.7919-.6086-7.1255-.6086-8.3661" stroke="#222" stroke-width="1.5" stroke-linecap="round" stroke-linejoin="round"/><mask id="a" style="mask-type:alpha" maskUnits="userSpaceOnUse" x="37" y="56" width="40" height="22"><path d="M73.8423 63.7747l.1472-.3794M70.6862 63.7747l.1472-.3794M75.4189 60.5229l.1472-.3824M72.2628 60.5229l.15-.3824M69.1095 60.5229l.1472-.3824M73.8423 57.2682l.1472-.3795M70.6862 57.2682l.1472-.3795M73.8423 70.2843l.1472-.3824M70.6862 70.2843l.1472-.3824M75.4189 67.0295l.1472-.3795M72.2628 67.0295l.15-.3795M69.1095 67.0295l.1472-.3795M73.8423 63.7747l.1472-.3794M70.6862 63.7747l.1472-.3794M73.8423 76.7909l.1472-.3795M70.6862 76.7909l.1472-.3795M75.4189 73.5361l.1472-.3795M72.2628 73.5361l.15-.3795M69.1095 73.5361l.1472-.3795M73.8423 70.2843l.1472-.3824M70.6862 70.2843l.1472-.3824M67.53 63.7747l.15-.3794M64.3767 63.7747l.1472-.3794M69.1095 60.5229l.1472-.3824M65.9534 60.5229l.1472-.3824M62.7972 60.5229l.1501-.3824M67.53 57.2682l.15-.3795M64.3767 57.2682l.1472-.3795M67.53 70.2843l.15-.3824M64.3767 70.2843l.1472-.3824M69.1095 67.0295l.1472-.3795M65.9534 67.0295l.1472-.3795M62.7972 67.0295l.1501-.3795M67.53 63.7747l.15-.3794M64.3767 63.7747l.1472-.3794M67.53 76.7909l.15-.3795M64.3767 76.7909l.1472-.3795M69.1095 73.5361l.1472-.3795M65.9534 73.5361l.1472-.3795M62.7972 73.5361l.1501-.3795M67.53 70.2843l.15-.3824M64.3767 70.2843l.1472-.3824M61.2206 63.7747l.1472-.3794M58.0645 63.7747l.15-.3794M62.7972 60.5229l.1501-.3824M59.644 60.5229l.1471-.3824M56.4878 60.5229l.1472-.3824M61.2206 57.2682l.1472-.3795M58.0645 57.2682l.15-.3795M61.2206 70.2843l.1472-.3824M58.0645 70.2843l.15-.3824M62.7972 67.0295l.1501-.3795M59.644 67.0295l.1471-.3795M56.4878 67.0295l.1472-.3795M61.2206 63.7747l.1472-.3794M58.0645 63.7747l.15-.3794M61.2206 76.7909l.1472-.3795M58.0645 76.7909l.15-.3795M62.7972 73.5361l.1501-.3795M59.644 73.5361l.1471-.3795M56.4878 73.5361l.1472-.3795M61.2206 70.2843l.1472-.3824M58.0645 70.2843l.15-.3824M54.9112 63.7747l.1472-.3794M51.7551 63.7747l.1472-.3794M56.4878 60.5229l.1472-.3824M53.3317 60.5229l.15-.3824M50.1784 60.5229l.1472-.3824M54.9112 57.2682l.1472-.3795M51.7551 57.2682l.1472-.3795M54.9112 70.2843l.1472-.3824M51.7551 70.2843l.1472-.3824M56.4878 67.0295l.1472-.3795M53.3317 67.0295l.15-.3795M50.1784 67.0295l.1472-.3795M54.9112 63.7747l.1472-.3794M51.7551 63.7747l.1472-.3794M54.9112 76.7909l.1472-.3795M51.7551 76.7909l.1472-.3795M56.4878 73.5361l.1472-.3795M53.3317 73.5361l.15-.3795M50.1784 73.5361l.1472-.3795M54.9112 70.2843l.1472-.3824M51.7551 70.2843l.1472-.3824M48.5989 63.7747l.1501-.3794M45.4456 63.7747l.1472-.3794M50.1784 60.5229l.1472-.3824M47.0223 60.5229l.1472-.3824M43.8662 60.5229l.15-.3824M48.5989 57.2682l.1501-.3795M45.4456 57.2682l.1472-.3795M48.5989 70.2843l.1501-.3824M45.4456 70.2843l.1472-.3824M50.1784 67.0295l.1472-.3795M47.0223 67.0295l.1472-.3795M43.8662 67.0295l.15-.3795M48.5989 63.7747l.1501-.3794M45.4456 63.7747l.1472-.3794M48.5989 76.7909l.1501-.3795M45.4456 76.7909l.1472-.3795M50.1784 73.5361l.1472-.3795M47.0223 73.5361l.1472-.3795M43.8662 73.5361l.15-.3795M48.5989 70.2843l.1501-.3824M45.4456 70.2843l.1472-.3824M42.2895 63.7747l.1472-.3794M39.1334 63.7747l.15-.3794M43.8662 60.5229l.15-.3824M40.7129 60.5229l.1472-.3824M37.5568 60.5229l.1472-.3824M42.2895 57.2682l.1472-.3795M39.1334 57.2682l.15-.3795M42.2895 70.2843l.1472-.3824M39.1334 70.2843l.15-.3824M43.8662 67.0295l.15-.3795M40.7129 67.0295l.1472-.3795M37.5568 67.0295l.1472-.3795M42.2895 63.7747l.1472-.3794M39.1334 63.7747l.15-.3794M42.2895 76.7909l.1472-.3795M39.1334 76.7909l.15-.3795M43.8662 73.5361l.15-.3795M40.7129 73.5361l.1472-.3795M37.5568 73.5361l.1472-.3795M42.2895 70.2843l.1472-.3824M39.1334 70.2843l.15-.3824" stroke="#000" stroke-linecap="round" stroke-linejoin="round"/></mask><g mask="url(#a)"><path d="M56.9917 65.2973l-9.3093-1.0583-4.4099-2.3612c2.7197-1.9962 7.7906-3.3119 13.7192-3.3119 5.8381 0 10.8446 1.2758 13.5931 3.2211l-2.1932 1.3911c-4.7883 2.1192-11.3999 2.1192-11.3999 2.1192z" fill="#222"/></g><path d="M43.2725 61.8778c2.7197-1.9962 7.7906-3.3119 13.7192-3.3119 5.6037 0 10.4413 1.1754 13.2512 2.9901" stroke="#222" stroke-width="1.5" stroke-linecap="round" stroke-linejoin="round"/><path d="M56.9804 52.4739c8.3785.0554 15.1295 2.8811 15.1295 6.3606s-6.884 6.3606-15.3786 6.3606c-8.4947 0-15.3787-2.849-15.3787-6.3606 0-1.262.8895-2.4408 2.4243-3.4284" stroke="#222" stroke-width="1.5" stroke-linecap="round" stroke-linejoin="round"/></svg>