<svg width="81" height="80" viewBox="0 0 81 80" fill="none" xmlns="http://www.w3.org/2000/svg"><path d="M55.3577 5.13074H25.0685l-.9595 1.36985 1.3215 1.15887 1.7484.22364.1017 7.4005h-1.6468l-.1627 49.9532H20.49l-.7522 1.4638.7522.9352 4.9811.3457v5.164l1.3215 1.6062 26.9589.1626 1.2199-1.1792v-6.0586l4.6964.2236 1.0572-.5896.3253-1.3825-.9759-.6506h-4.8591V15.5275l-1.6671-.2033V7.74078l2.4194-.20331.4269-1.32151-1.0368-1.08522z" fill="#fff"/><path d="M27.1992 15.2129V7.84436M53.5313 15.2129V7.84436M55.1563 15.3866H25.5742v49.8983h29.5821V15.3866zM55.1563 67.6377H25.5742v5.4336c0 .9299.7561 1.6813 1.6954 1.6813h26.196c.9346 0 1.6954-.7514 1.6954-1.6813v-5.4336h-.0047z" stroke="#222" stroke-width="1.5" stroke-linecap="round" stroke-linejoin="round"/><path d="M59.7164 65.2849H21.0141c-.6528 0-1.1882.526-1.1882 1.1788 0 .6481.5307 1.1788 1.1882 1.1788h38.7023c.6527 0 1.1881-.526 1.1881-1.1788 0-.6481-.5307-1.1788-1.1881-1.1788zM55.1422 5.24731H25.5836c-.6528 0-1.1882.52599-1.1882 1.17878 0 .64809.5307 1.17877 1.1882 1.17877h29.5586c.6528 0 1.1881-.52599 1.1881-1.17877 0-.64809-.5306-1.17878-1.1881-1.17878zM25.5742 57.071h29.4177l-.9534-4.762H26.6919l-1.1177 4.762zM33.8773 38.3046c1.5536 0 2.8131-1.2721 2.8131-2.8413s-1.2595-2.8412-2.8131-2.8412c-1.5536 0-2.8131 1.272-2.8131 2.8412 0 1.5692 1.2595 2.8413 2.8131 2.8413zM33.8773 27.4985c1.5536 0 2.8131-1.2721 2.8131-2.8413s-1.2595-2.8413-2.8131-2.8413c-1.5536 0-2.8131 1.2721-2.8131 2.8413s1.2595 2.8413 2.8131 2.8413zM33.8773 49.1155c1.5536 0 2.8131-1.2721 2.8131-2.8412 0-1.5692-1.2595-2.8413-2.8131-2.8413-1.5536 0-2.8131 1.2721-2.8131 2.8413 0 1.5691 1.2595 2.8412 2.8131 2.8412z" stroke="#222" stroke-width="1.5" stroke-linecap="round" stroke-linejoin="round"/></svg>