<svg width="81" height="81" viewBox="0 0 81 81" fill="none" xmlns="http://www.w3.org/2000/svg"><path d="M8.27993 26.1668V4.90668L71.7467 4.651l.1543 19.047-.2866 2.9541-2.2266 1.7856h-5.5774v31.6128l6.0624.3086 1.8298 1.962v5.8861h-7.8922v6.9883l-1.3227.97-1.2566-1.3227.1103-6.6356H18.706l.1323 6.1506-.4189 1.3006-1.3006.485-1.1243-1.2786v-6.6576H8.12442v-5.9743l2.29268-1.9179h5.7097V28.6582h-4.7617l-1.63138-.5291-1.45379-1.9623z" fill="#fff"/><path d="M71.8153 68.0624H8.16861v-4.7303c0-1.763 1.43546-3.1888 3.20329-3.1888H68.612c1.7678 0 3.2033 1.4258 3.2033 3.1888v4.7303zM16.1263 60.1384v-31.686h47.7314v31.686" stroke="#222" stroke-width="1.5" stroke-linecap="round" stroke-linejoin="round"/><path d="M16.1263 28.4524h-4.7544c-1.76783 0-3.20329-1.4258-3.20329-3.1888V4.69031H71.8153V25.2636c0 1.763-1.4355 3.1888-3.2033 3.1888h-4.7544M63.8576 68.0623v6.6666c0 .6937-.5587 1.2525-1.2524 1.2525-.6936 0-1.2524-.5588-1.2524-1.2525v-6.6666M16.1263 68.0623v6.6666c0 .6937.5587 1.2525 1.2524 1.2525h.0819c.6936 0 1.2524-.5588 1.2524-1.2525v-6.6666" stroke="#222" stroke-width="1.5" stroke-linecap="round" stroke-linejoin="round"/><path d="M22.0511 28.4524v6.9846c0 .5154.4191.9345.9345.9345h21.9943c.5154 0 .9345-.4191.9345-.9345v-6.9846M59.8837 20.5332c2.1974 0 3.9788-1.7727 3.9788-3.9595s-1.7814-3.9596-3.9788-3.9596c-2.1975 0-3.9789 1.7728-3.9789 3.9596s1.7814 3.9595 3.9789 3.9595zM55.8181 51.9208c2.1975 0 3.9788-1.7727 3.9788-3.9595s-1.7813-3.9596-3.9788-3.9596c-2.1974 0-3.9788 1.7728-3.9788 3.9596s1.7814 3.9595 3.9788 3.9595zM37.87 42.648h3.7765c.7659 0 1.3873-.6166 1.3873-1.3777v-4.6291H24.9316v4.6291c0 .7611.6214 1.3777 1.3873 1.3777h4.2004" stroke="#222" stroke-width="1.5" stroke-linecap="round" stroke-linejoin="round"/><path d="M67.2826 16.574c0 .6358-.6455 1.1753-.7997 1.763-.1637.6069.1156 1.3921-.1878 1.9219-.3131.5395-1.1416.6889-1.58 1.1224-.4383.4335-.5877 1.262-1.1272 1.5703-.5298.3083-1.3246.0289-1.9316.1879-.6069.159-1.132.7948-1.7678.7948-.6358 0-1.1802-.6407-1.7678-.7948-.5877-.1541-1.4018.1156-1.9316-.1879-.5395-.3131-.6889-1.1368-1.1272-1.5703-.4384-.4335-1.2669-.5877-1.58-1.1224-.3131-.5346-.0289-1.3198-.1878-1.9219-.159-.6021-.7997-1.1272-.7997-1.763 0-.6359.6455-1.1754.7997-1.7631.1637-.6069-.1156-1.3921.1878-1.9219.3131-.5395 1.1416-.6889 1.58-1.1224.4383-.4335.5877-1.262 1.1272-1.5703s1.3246-.0289 1.9316-.1879c.5876-.15412 1.132-.79478 1.7678-.79478.6358 0 1.1802.64066 1.7678.79478.5877.1542 1.4018-.11558 1.9316.1879.5395.3131.6889 1.1368 1.1272 1.5703.4384.4384 1.2669.5877 1.58 1.1224.3083.5298.0289 1.3198.1878 1.9219.159.6022.7997 1.1272.7997 1.7631v0zM54.8932 48.9535l1.9894-1.9797M38.1736 41.1402c0 1.1272-.4721 2.1436-1.2332 2.8613-.7129.6792-1.6811 1.0983-2.7457 1.0983-1.0645 0-2.0857-.4432-2.8083-1.1561-.7225-.7177-1.1705-1.71-1.1705-2.8035 0-2.1869 1.7823-3.9595 3.9788-3.9595 2.1966 0 3.9789 1.7726 3.9789 3.9595v0zM36.8586 44.1268c.5973.265 1.2283.9104 1.2283 2.476M31.4298 44.0931c-.6166.2409-1.3102.8719-1.3102 2.5097M28.4721 48.7656h10.9153c.3131 0 .5539.2746.5106.5877l-1.3873 10.0193h-9.186l-1.3824-9.9952c-.0434-.3228.2071-.6118.5347-.6118h-.0049z" stroke="#222" stroke-width="1.5" stroke-linecap="round" stroke-linejoin="round"/><path d="M38.819 48.7657h4.8941c.578 0 1.0019.5444.8574 1.1031-.3661 1.4355-1.4644 3.7573-4.7014 3.7573M60.4231 28.4524l4.3112 5.8382c1.5077 2.0424 2.1436 4.6002 1.7582 7.1098-.3853 2.5048.2505 5.0627 1.7582 7.1099l4.3112 5.8381" stroke="#222" stroke-width="1.5" stroke-linecap="round" stroke-linejoin="round"/></svg>