<svg width="81" height="80" viewBox="0 0 81 80" fill="none" xmlns="http://www.w3.org/2000/svg"><path d="M29.1896 6.33105h14.2099l1.0063.73597-.6325 1.07422h-6.7916l-.1997 6.81836h15.881l3.0918 1.8732.3231 3.0918 6.3682 1.3844 4.6147 3.6456 2.6766 5.63V48.628l-.8768.8768-1.1076-.323V33.3534l-1.6612-5.0762-3.138-4.1071-4.4763-1.8458h-2.3996l.4153 46.193-1.3383 3.5072-3.2302 1.7536H23.0828l-3.9686-.9691-2.0304-2.9996V32.0151l-1.7075-5.3992-4.2916-4.5685v-1.8081h5.7052l.2413-2.7756 2.7153-2.5041h16.533l.181-6.81836-7.2709-.15084-.4827-.66374.4827-.99561z" fill="#fff"/><path d="M17.0105 68.8938V32.2525c0-2.8665-1.1357-5.6148-3.1617-7.6454l-2.6348-2.6348c-.6769-.6768-.1953-1.8352.7586-1.8352h44.2686v48.7613c0 2.6075-2.1078 4.7198-4.7108 4.7198H21.7258c-2.603 0-4.7108-2.1123-4.7108-4.7198l-.0045-.0046z" stroke="#222" stroke-width="1.5" stroke-linecap="round" stroke-linejoin="round"/><path d="M19.5635 56.0743v11.8292c0 1.4582 1.1811 2.6393 2.6348 2.6393H50.899c1.4582 0 2.6348-1.1811 2.6348-2.6393V56.0743H19.5635v0zM21.0126 14.9539h31.0721c2.2531 0 4.0793 1.8261 4.0793 4.0793v1.0993H16.9333v-1.0993c0-2.2532 1.8261-4.0793 4.0793-4.0793v0zM56.6228 20.1326c3.4524 0 6.9503 1.3719 9.3943 3.8204 2.444 2.4439 3.8158 5.7647 3.8158 9.2216v15.2317c0 .6087-.4906 1.0993-1.0993 1.0993s-1.0993-.4951-1.0993-1.0993V33.8106c0-2.9709-1.1811-6.0963-3.2798-8.1995-2.0988-2.1033-4.7608-3.2844-7.7317-3.2844M19.7361 51.459h33.6251M20.1768 52.9216c.8631 0 .8631 1.59 1.7217 1.59.8585 0 .8631-1.59 1.7216-1.59.8586 0 .8631 1.59 1.7217 1.59s.8631-1.59 1.7217-1.59.8631 1.59 1.7217 1.59.8631-1.59 1.7217-1.59c.8585 0 .8631 1.59 1.7216 1.59.8586 0 .8632-1.59 1.7217-1.59.8586 0 .8631 1.59 1.7217 1.59s.8631-1.59 1.7262-1.59.8631 1.59 1.7217 1.59.8631-1.59 1.7217-1.59.8631 1.59 1.7217 1.59.8631-1.59 1.7217-1.59c.8585 0 .8631 1.59 1.7216 1.59.8586 0 .8632-1.59 1.7263-1.59s.8631 1.59 1.7262 1.59.8631-1.59 1.7262-1.59.8631 1.59 1.7217 1.59M36.5487 51.4591V20.1235M36.5487 14.9539V8.099M43.3218 6.38184H29.78c-.4742 0-.8586.38439-.8586.85857 0 .47417.3844.85857.8586.85857h13.5418c.4742 0 .8586-.3844.8586-.85857 0-.47418-.3844-.85857-.8586-.85857z" stroke="#222" stroke-width="1.5" stroke-linecap="round" stroke-linejoin="round"/></svg>