<svg width="81" height="81" viewBox="0 0 81 81" fill="none" xmlns="http://www.w3.org/2000/svg"><path d="M37.1178 6.69274l1.64-1.17016.934.0725 1.0599.83275.6435 1.70335-1.4006 1.7412 16.8443.52992 2.044 3.2932-.3028 2.044h3.5202l3.596 1.7412 2.3847 3.5202.2649 13.1347-.7949 2.839-3.1038 3.4824-4.1259.8327-1.4384-.4542.3785-1.4384 5.1858-1.3248 2.0818-3.9367V24.0291l-.3785-3.0282-2.8389-2.7253-2.5361-.53v1.2113l-6.7377 19.5696-.3028 7.949 9.463 25.0581-.7192 3.331-3.066.6814H18.646l-2.6875-1.8926.2649-3.4824 8.3275-23.2413.3407-7.9111-5.2615-13.6268-3.4445-3.2932-3.0282-2.9146.3028-1.3627h4.6558v-5.11l3.1796-2.6497h16.2008l-.3786-.94627V6.69274z" fill="#fff"/><path d="M18.1368 17.2473v-2.8454c0-2.3443 1.9-4.2443 4.2443-4.2443H54.71c2.3443 0 4.2444 1.9 4.2444 4.2443v1.1438M25.4486 75.4203l7.2362-28.8124M53.4433 75.4203l-7.2362-28.8124M39.4436 75.4203V46.6079" stroke="#222" stroke-width="1.5" stroke-linecap="round" stroke-linejoin="round"/><path d="M60.7457 17.7009c3.3699 0 5.8182 2.5192 5.8182 5.8986v9.6562c0 3.3794-2.7319 6.1207-6.1018 6.1207h-.7468c-.4726 0-.8555.3828-.8555.8602s.3829.8602.8555.8602h1.2951c3.9985 0 7.2361-3.2518 7.2361-7.2598V23.0418c0-4.008-3.2376-7.2598-7.2361-7.2598H18.2597M39.2073 10.1434c1.2477 0 2.2592-1.0136 2.2592-2.26395 0-1.25036-1.0115-2.26397-2.2592-2.26397-1.2478 0-2.2593 1.01361-2.2593 2.26397 0 1.25035 1.0115 2.26395 2.2593 2.26395zM24.8294 38.9417h28.9447M24.8294 46.5605h28.9447" stroke="#222" stroke-width="1.5" stroke-linecap="round" stroke-linejoin="round"/><path d="M60.6464 17.6868H14.0011c-.5766 0-1.0445.4679-1.0445 1.0445 0 .4963.2268.9642.6191 1.2714l3.975 3.1195c1.2856 1.0067 2.1694 2.3207 2.8311 3.8898.2505.5956 4.1782 11.0363 4.1782 11.0363s.2694 1.0445.2694 1.5834v6.3003c0 .3781-.0567.7515-.1749 1.106 0 0-6.6075 17.0294-8.3941 22.8429-1.1013 3.5779-.0615 5.6481 3.6724 5.6481h38.738c3.7338 0 5.303-1.5644 4.1781-5.1376-1.8716-5.9601-8.8999-23.3534-8.8999-23.3534-.1134-.3592-.1748-.7326-.1748-1.106v-6.8061c0-.4254.0661-.8507.2032-1.2525l6.1396-16.9018c.3498-.9594.5389-1.9709.5672-2.9918l.0095-.1891" stroke="#222" stroke-width="1.5" stroke-linecap="round" stroke-linejoin="round"/></svg>