<svg width="81" height="81" viewBox="0 0 81 81" fill="none" xmlns="http://www.w3.org/2000/svg"><path d="M14.9251 24.8686l7.048-7.8412 3.8629-3.4089 8.9323-3.166h7.0102l6.8405 4.6358 2.0917 6.5579L64.9006 42.507l1.8656 8.1973-1.8656 6.6144-5.4272 7.1798-6.0491 4.1835-6.3882 1.8656-5.3707-.9046-19.7302-16.0555-7.0101-2.1482-3.4485-4.4662-1.3568-6.9536.961-6.5013 3.8443-8.6496z" fill="#fff"/><path d="M43.0014 42.4131c-6.4098 7.4997-14.8746 11.4665-21.6723 10.8339-2.5861-.2402-4.9274-1.1453-6.8208-2.7616-6.89926-5.8926-5.32914-19.0585 3.5143-29.4028 8.8343-10.3582 21.5892-13.96487 28.4885-8.0723 2.3875 2.0458 3.7683 4.9597 4.17 8.3216v.0093c.7666 6.3451-1.9026 14.3066-7.6751 21.0719h-.0046z" stroke="#222" stroke-width="1.5" stroke-linecap="round" stroke-linejoin="round"/><path d="M50.6858 21.3412c4.2624 6.4144 10.2612 15.3964 13.0228 19.4048 4.2347 6.1189 3.9345 14.0572-2.5861 21.7046-6.5253 7.6336-15.9414 10.3028-21.0304 5.9526L21.3292 53.247" stroke="#222" stroke-width="1.5" stroke-linecap="round" stroke-linejoin="round"/><path d="M39.4917 41.1756c-5.6617 6.165-12.6579 9.2729-17.964 8.5294-2.0181-.2863-3.7914-1.1222-5.1537-2.5537-4.9551-5.2091-2.6508-16.3293 5.1629-24.8356 7.8044-8.5156 18.1534-11.1848 23.1085-5.9757 1.7179 1.8102 2.5676 4.3224 2.6092 7.1902v.0092c.0877 5.4077-2.6646 12.0807-7.7675 17.6408l.0046-.0046z" stroke="#222" stroke-width="1.5" stroke-linecap="round" stroke-linejoin="round"/><path d="M31.3087 32.586c-.5034.5496-1.1268.8267-1.5979.7574-.1801-.0231-.3371-.1016-.4572-.2263-.4387-.4618-.2355-1.45.4572-2.2074.6927-.7573 1.6163-.9929 2.055-.5311.1524.1617.2263.3833.2309.6373.0093.4803-.2355 1.076-.6927 1.5701h.0047z" stroke="#222" stroke-width="1.5" stroke-linecap="round" stroke-linejoin="round"/></svg>