<svg width="81" height="80" viewBox="0 0 81 80" fill="none" xmlns="http://www.w3.org/2000/svg"><path d="M17.4792 7.01965l2.7371-1.62915 41.6514.49575 1.3925 1.93963-.2984 2.33752-3.8295 6.5151-3.0835 7.0623 1.492 1.7407-.6465 1.4422-1.3429 7.7088 1.9894 6.5649v1.9894l-1.492.7957 2.0391 6.4157 5.8188 13.7763-1.492 5.3713-2.8348 3.1332-4.5258 1.8899-30.8848-.4973-4.7745-2.8349-1.9894-4.1279v-3.8792l4.9237-11.6875 2.4832-7.5848h-1.3444l-.9707-1.1598 2.5416-9.0585-2.0202-7.4293v-1.7595l2.0202-.4562-2.5416-5.4091-5.018-8.86293V7.01965z" fill="#fff"/><path d="M35.2237 33.8028v.2083c0 1.8751-.7454 5.079-1.8519 8.8061-.2176.7454-.9908 1.2639-1.8705 1.2639H24.825c-.1342 0-.2685-.0093-.3981-.0324-1.0417-.1898-1.7409-1.1112-1.4723-2.051.9723-3.3752 1.6065-6.2504 1.6065-7.9819 0-2.2316-.6157-4.991-1.5695-7.9449-.3009-.9306.3611-1.8519 1.3751-2.0742.1528-.0324.3102-.0509.4769-.0509h6.6531c.8565 0 1.6066.4908 1.8519 1.2084 1.0881 3.2131 1.8335 6.2272 1.8751 8.6532v-.0046zM55.7063 44.0581c-.0834.0092-.1806.0185-.2686.0185h-6.4216c-.8797 0-1.6529-.5186-1.8705-1.264-1.1065-3.727-1.8519-6.9309-1.8519-8.806 0-.125 0-.25.0046-.3796.0695-2.3937.8102-5.3475 1.8705-8.482.2454-.7176.9954-1.2084 1.8519-1.2084H55.41c.1203 0 .2361.0093.3518.0278 1.088.1713 1.8103 1.1297 1.5047 2.0974-.9491 2.9538-1.5741 5.7132-1.5741 7.9448 0 1.7362.6343 4.6114 1.6065 7.9819.2825.9769-.4815 1.9353-1.5926 2.0696v0zM56.0072 44.2015c2.0325 7.5467 5.0003 12.0191 6.9865 17.788 2.0649 6.0142-2.4122 12.2691-8.7921 12.2691H26.5288c-6.3799 0-10.857-6.2596-8.7921-12.2691 1.9862-5.7781 4.9632-10.2598 6.9911-17.8112" stroke="#222" stroke-width="1.5" stroke-linecap="round" stroke-linejoin="round"/><path d="M59.6787 58.7623h-38.627c-.4954 1.0556-.963 2.1205-1.3797 3.2502-1.889 5.079 2.2038 10.3663 8.0421 10.3663H53.021c5.8382 0 9.9264-5.2873 8.0421-10.3663-.4214-1.1251-.889-2.1946-1.3844-3.2502zM24.6722 23.8533c-2.1761-6.9448-5.3892-9.4589-7.2782-14.55635-.6343-1.72231.6436-3.55574 2.4863-3.55574H60.85c1.8427 0 3.1251 1.83343 2.4862 3.55574-1.8843 5.09285-5.0882 7.59295-7.2689 14.52855M40.3675 37.6038c1.7081 0 3.0928-1.3846 3.0928-3.0927 0-1.7081-1.3847-3.0928-3.0928-3.0928s-3.0927 1.3847-3.0927 3.0928 1.3846 3.0927 3.0927 3.0927zM43.4557 34.5112h12.1811M37.2748 34.5112H24.626" stroke="#222" stroke-width="1.5" stroke-linecap="round" stroke-linejoin="round"/></svg>