<svg width="81" height="80" viewBox="0 0 81 80" fill="none" xmlns="http://www.w3.org/2000/svg"><path d="M3.54907 12.4941l1.91492-2.403 55.05681-.0703 2.1214 1.1338.256 4.0966 5.9986 1.4265 3.804 2.9627 5.1939 10.461-.4755 1.1704-1.2802.2195-2.414-3.8406-4.0601-7.169-4.2429-2.4872-3.1456-.3658-5.267 11.7777-1.6825 1.5362H42.7445l-2.5238-.4023-1.8289-2.3775-5.5596-12.8384h-4.4258l-5.4499 17.4471 5.5231 29.4442 7.425.2195-2.8164-4.7916.2195-16.8618-2.0483-2.7799v-.8046h2.7067V35.661l2.0117-.9875h26.1158l6.2546 1.1338 4.3526 3.4017 5.1939 10.3878-.951 1.0973h-1.1704l-5.0842-9.9489-4.4989-3.2919-3.4383-.3658V59.253l-2.5969 2.6701 2.5969.951v5.4134l-2.0515 1.6917H5.35137l-2.51568-1.9524v-5.7823l5.55702-29.7-4.84364-20.0504z" fill="#fff"/><path d="M33.2684 57.0698V41.7987c0-1.1395-.4567-2.2347-1.2649-3.0429l-.4243-.4243c-.4728-.4687-.1374-1.2729.5294-1.2729h30.8816v20.0112c0 2.9863-2.4287 5.4069-5.4271 5.4069H38.6955c-2.9985 0-5.4271-2.4206-5.4271-5.4069zM34.3029 17.7101h29.0146c3.1116 0 6.797 2.267 8.1871 5.0432l4.0492 8.0699c.4121.8163 1.5558.885 2.0609.1213.2344-.3556.2586-.8042.0687-1.1841l-4.033-8.0376c-1.9397-3.8632-5.8999-6.304-10.2359-6.304h-.4324" stroke="#222" stroke-width="1.5" stroke-linecap="round" stroke-linejoin="round"/><path d="M63.3175 37.0546c3.1116 0 6.797 2.267 8.1871 5.0432l4.0451 8.0619c.4122.8203 1.5639.889 2.065.1212.2344-.3556.2586-.8042.0687-1.184l-4.033-8.0376c-1.9397-3.8633-5.8999-6.3041-10.2359-6.3041H35.6809c-.7799 0-1.4144.6304-1.4144 1.4063v.8163M58.1288 50.0182h-7.5042M58.1288 44.5344h-7.5042M5.91867 69.9525H60.0119c1.6407 0 2.9702-1.3255 2.9702-2.9621v-3.6248c0-.493-.4001-.8931-.8971-.8931H2.94852v4.5139c0 1.6366 1.3295 2.962 2.97015 2.962v.0041z" stroke="#222" stroke-width="1.5" stroke-linecap="round" stroke-linejoin="round"/><path d="M2.94855 62.4767l5.49176-29.9036-4.50979-19.4939c-.48493-1.4427.59403-2.9338 2.12154-2.9338H60.7474c1.2366 0 2.2387.9981 2.2387 2.2306v3.0429H28.4636l-5.2937 17.1542 5.2937 29.9036H2.94855z" stroke="#222" stroke-width="1.5" stroke-linecap="round" stroke-linejoin="round"/><path d="M32.9653 15.4188l5.6494 13.4486c.6021 1.2002 1.8346 1.9599 3.1843 1.9599h12.3575c1.3497 0 2.5822-.7597 3.1843-1.9599l5.6494-13.4486M52.9644 30.8435l5.0917-13.0081M38.5783 17.8677l4.926 12.7413M22.9719 32.5731H8.44031M15.407 67.6735H6.29855v-3.342H15.407v3.342zM10.8528 64.5498v3.0591M35.3818 53.5541v3.0469c0 2.6631 2.065 4.0936 4.6149 4.0936h16.051c3.4025-.2667 4.6148-1.6973 4.6148-4.3603v-2.7802H35.3818v0zM49.7316 30.7747l2.1054-12.6161M46.8179 30.7747l-2.1013-12.6161M49.5982 31.2556c0 .4809-.5334.8688-.7759.8688h-1.2082c-.4284 0-.6628-.295-.7759-.8688" stroke="#222" stroke-width="1.5" stroke-linecap="round" stroke-linejoin="round"/></svg>