<svg width="71" height="70" viewBox="0 0 71 70" fill="none" xmlns="http://www.w3.org/2000/svg">
<g clip-path="url(#clip0_1220_8661)">
<path d="M35.0349 69.0707C53.855 69.0707 69.1117 53.814 69.1117 34.9939C69.1117 16.1737 53.855 0.916992 35.0349 0.916992C16.2147 0.916992 0.958008 16.1737 0.958008 34.9939C0.958008 53.814 16.2147 69.0707 35.0349 69.0707Z" fill="white" stroke="#222222" stroke-width="1.5" stroke-miterlimit="10"/>
<path d="M48.5702 19.8323L21.5117 47.9423" stroke="#222222" stroke-width="1.5" stroke-miterlimit="10"/>
<path d="M26.7693 17.5091C26.7693 18.2794 26.4147 18.6585 25.7055 18.6585H19.7754V22.9991C20.5702 22.3877 21.4627 22.082 22.4287 22.082C24.0182 22.082 25.2042 22.5833 25.9623 23.5982C26.7204 24.613 27.1116 25.9213 27.1116 27.5475C27.1116 29.027 26.6592 30.2742 25.7422 31.3257C24.8374 32.365 23.6758 32.8908 22.2575 32.8908C20.5579 32.8908 19.2496 32.2183 18.3326 30.8733C17.9047 30.2253 17.6846 29.5895 17.6846 28.9537C17.6846 28.2689 18.0269 27.9143 18.7239 27.9143C19.2007 27.9143 19.5186 28.1711 19.6654 28.6724C19.7632 29.0392 19.9588 29.4183 20.2645 29.7973C20.7169 30.3475 21.3527 30.6165 22.1719 30.6165C22.9911 30.6165 23.6881 30.3231 24.2383 29.7484C24.7885 29.1737 25.0575 28.4279 25.0575 27.5109C25.0575 26.4716 24.813 25.6768 24.3239 25.151C23.8348 24.613 23.1501 24.3563 22.2575 24.3563C21.7073 24.3563 21.2426 24.4785 20.8514 24.7109C20.4601 24.9432 20.0444 25.2978 19.6164 25.7868C19.3597 26.0436 19.0907 26.1781 18.8217 26.1781C18.516 26.1781 18.2592 26.0558 18.0392 25.8113C17.8191 25.5668 17.7213 25.2488 17.7213 24.882V17.5213C17.7213 16.7877 18.0514 16.4209 18.7116 16.4209H25.7178C26.4269 16.4209 26.7815 16.7877 26.7815 17.5213L26.7693 17.5091Z" fill="#222222"/>
<path d="M40.1948 39.9702V53.9213C40.1948 54.6794 39.8525 55.0462 39.18 55.0462C38.5075 55.0462 38.1162 54.6671 38.1162 53.9213V39.9702C38.1162 39.1877 38.4708 38.7964 39.18 38.7964C39.8891 38.7964 40.1948 39.1877 40.1948 39.9702Z" fill="#222222"/>
<path d="M56.9579 46.9153C56.9579 49.1651 56.3955 51.1214 55.2706 52.7965C54.1457 54.4594 52.7274 55.2908 51.0034 55.2908C49.2793 55.2908 47.8854 54.4594 46.7728 52.7843C45.6601 51.1092 45.0854 49.1528 45.0854 46.9153C45.0854 44.6777 45.6479 42.7336 46.7728 41.0707C47.8977 39.4079 49.3038 38.5764 51.0034 38.5764C52.7029 38.5764 54.1457 39.4079 55.2706 41.0707C56.3955 42.7336 56.9579 44.6777 56.9579 46.9153ZM48.2034 51.2437C48.9003 52.4297 49.8418 53.0288 51.0034 53.0288C52.1649 53.0288 53.1186 52.4297 53.8156 51.2437C54.5125 50.0576 54.8793 48.6148 54.8793 46.9153C54.8793 45.2157 54.5247 43.7974 53.8156 42.5991C53.1064 41.4009 52.1649 40.814 50.9911 40.814C49.8173 40.814 48.9125 41.4131 48.2034 42.5991C47.4942 43.7852 47.1396 45.2279 47.1396 46.9153C47.1396 48.6026 47.4942 50.0576 48.1911 51.2437H48.2034Z" fill="#222222"/>
</g>
<defs>
<clipPath id="clip0_1220_8661">
<rect width="70" height="70" fill="white" transform="translate(0.0410156)"/>
</clipPath>
</defs>
</svg>
