<svg width="80" height="74" viewBox="0 0 80 74" fill="none" xmlns="http://www.w3.org/2000/svg">
<path d="M67.8033 10.0945H78.0088L78.7892 21.9808L78.0088 27.7439H68.1635L64.5016 30.3853L59.2188 33.507H44.3909L42.71 30.8055L43.6105 27.7439L41.6894 27.1436L40.5488 25.0425L41.2692 21.9808L38.5078 21.1404L36.8869 19.4595L37.7874 16.0977H39.9485L38.5078 13.3963L39.4682 10.0945L46.9723 9.55423V7.09292L49.5536 5.11182H60.8396L64.8618 7.75325L67.8033 10.0945Z" fill="white"/>
<path d="M16.9563 21.9808L25.6009 13.3963L32.372 19.2834L35.4804 22.0439L35.9676 25.0828L28.5212 31.8332L26.039 31.4621L19.6597 23.9229L16.4956 22.9622V44.8918L28.4208 44.4276L29.1189 45.6492L27.141 45.9982V68.8016L25.9194 71.0703L22.3709 72.8154H8.29336L5.03574 71.652L3.23242 67.9872V44.8918H14.8819V22.1814L15.9459 21.1404L16.9563 21.9808Z" fill="white"/>
<path d="M27.2628 45.6243V67.4127C27.2628 70.4219 24.8228 72.8619 21.8136 72.8619H8.67532C5.66608 72.8619 3.22607 70.4219 3.22607 67.4127V45.6243" stroke="#222222" stroke-width="1.5" stroke-linecap="round" stroke-linejoin="round"/>
<path d="M27.3228 64.784C33.5215 64.784 33.8019 61.4 33.8019 58.8027V50.8877C33.8019 47.7955 29.7543 47.5667 27.2656 47.5667" stroke="#222222" stroke-width="1.5" stroke-linecap="round" stroke-linejoin="round"/>
<path d="M25.1489 58.3337V67.001C25.1489 69.135 23.4183 70.8627 21.2872 70.8627H9.20445C7.07051 70.8627 5.34277 69.1321 5.34277 67.001V58.3366H25.1489V58.3337Z" fill="#222222"/>
<path d="M48.6222 15.9209H41.2678C39.6573 15.9209 38.3501 14.6136 38.3501 13.0032C38.3501 11.3927 39.6573 10.0854 41.2678 10.0854H55.6247" stroke="#222222" stroke-width="1.5" stroke-linecap="round" stroke-linejoin="round"/>
<path d="M48.6224 15.9211H39.8664C38.256 15.9211 36.9487 17.2284 36.9487 18.8389C36.9487 20.4493 38.256 21.7566 39.8664 21.7566H48.6224" stroke="#222222" stroke-width="1.5" stroke-linecap="round" stroke-linejoin="round"/>
<path d="M48.6222 21.7563H43.3703C41.7599 21.7563 40.4526 23.0636 40.4526 24.6741C40.4526 26.2845 41.7599 27.5918 43.3703 27.5918H48.6222" stroke="#222222" stroke-width="1.5" stroke-linecap="round" stroke-linejoin="round"/>
<path d="M46.7456 10.0856C46.7456 7.09635 48.0614 5.05396 50.6559 5.05396H59.1516C60.2987 5.05396 61.4085 5.31998 62.4126 5.81199C63.3222 6.25822 64.1403 6.88753 64.8125 7.68561L65.3646 8.34067C66.2914 9.44482 67.6673 10.0856 69.1061 10.0856H72.6675C72.6675 10.0856 77.4788 10.0884 77.4903 10.0913" stroke="#222222" stroke-width="1.5" stroke-linecap="round" stroke-linejoin="round"/>
<path d="M48.6196 27.5948H45.7019C44.0943 27.5948 42.7842 28.8992 42.7842 30.5125C42.7842 31.3163 43.1074 32.0428 43.6395 32.5749C44.1715 33.1069 44.8981 33.433 45.7019 33.433H56.8693C58.8487 33.433 60.7739 32.8409 62.3958 31.7596C62.9392 31.3964 63.4456 30.9816 63.9118 30.5125C64.8472 29.58 65.9485 28.8534 67.1413 28.3528C68.3427 27.8551 69.6328 27.5948 70.9544 27.5948H72.6678C72.6678 27.5948 77.4792 27.5948 77.4906 27.5862" stroke="#222222" stroke-width="1.5" stroke-linecap="round" stroke-linejoin="round"/>
<path d="M42.1146 10.0686C35.9759 10.0686 33.3529 10.2402 31.4678 12.1253L19.7197 23.8734" stroke="#222222" stroke-width="1.5" stroke-linecap="round" stroke-linejoin="round"/>
<path d="M14.9712 24.6225L15.0627 24.3879" stroke="#222222" stroke-width="0.8" stroke-linecap="round" stroke-linejoin="round"/>
<path d="M15.9727 22.6201L16.0642 22.3855" stroke="#222222" stroke-width="0.8" stroke-linecap="round" stroke-linejoin="round"/>
<path d="M14.9712 28.6274L15.0627 28.3928" stroke="#222222" stroke-width="0.8" stroke-linecap="round" stroke-linejoin="round"/>
<path d="M15.9727 26.6252L16.0642 26.3906" stroke="#222222" stroke-width="0.8" stroke-linecap="round" stroke-linejoin="round"/>
<path d="M14.9712 24.6227L15.0627 24.3882" stroke="#222222" stroke-width="0.8" stroke-linecap="round" stroke-linejoin="round"/>
<path d="M14.9712 32.632L15.0627 32.3975" stroke="#222222" stroke-width="0.8" stroke-linecap="round" stroke-linejoin="round"/>
<path d="M15.9727 30.6298L16.0642 30.3953" stroke="#222222" stroke-width="0.8" stroke-linecap="round" stroke-linejoin="round"/>
<path d="M14.9712 28.6274L15.0627 28.3928" stroke="#222222" stroke-width="0.8" stroke-linecap="round" stroke-linejoin="round"/>
<path d="M14.9712 36.6364L15.0627 36.4019" stroke="#222222" stroke-width="0.8" stroke-linecap="round" stroke-linejoin="round"/>
<path d="M15.9727 34.634L16.0642 34.3994" stroke="#222222" stroke-width="0.8" stroke-linecap="round" stroke-linejoin="round"/>
<path d="M14.9712 32.6318L15.0627 32.3972" stroke="#222222" stroke-width="0.8" stroke-linecap="round" stroke-linejoin="round"/>
<path d="M14.9712 40.6411L15.0627 40.4065" stroke="#222222" stroke-width="0.8" stroke-linecap="round" stroke-linejoin="round"/>
<path d="M15.9727 38.6389L16.0642 38.4043" stroke="#222222" stroke-width="0.8" stroke-linecap="round" stroke-linejoin="round"/>
<path d="M14.9712 36.6364L15.0627 36.4019" stroke="#222222" stroke-width="0.8" stroke-linecap="round" stroke-linejoin="round"/>
<path d="M14.9712 44.6459L15.0627 44.4114" stroke="#222222" stroke-width="0.8" stroke-linecap="round" stroke-linejoin="round"/>
<path d="M15.9727 42.6435L16.0642 42.4089" stroke="#222222" stroke-width="0.8" stroke-linecap="round" stroke-linejoin="round"/>
<path d="M14.9712 40.6411L15.0627 40.4065" stroke="#222222" stroke-width="0.8" stroke-linecap="round" stroke-linejoin="round"/>
<path d="M14.9712 48.6506L15.0627 48.416" stroke="#222222" stroke-width="0.8" stroke-linecap="round" stroke-linejoin="round"/>
<path d="M15.9722 46.6481L16.0637 46.4136" stroke="#222222" stroke-width="0.8" stroke-linecap="round" stroke-linejoin="round"/>
<path d="M14.9712 44.6459L15.0627 44.4114" stroke="#222222" stroke-width="0.8" stroke-linecap="round" stroke-linejoin="round"/>
<path d="M24.9829 56.6603L25.0744 56.4258" stroke="#222222" stroke-width="0.8" stroke-linecap="round" stroke-linejoin="round"/>
<path d="M23.9819 54.6579L24.0735 54.4233" stroke="#222222" stroke-width="0.8" stroke-linecap="round" stroke-linejoin="round"/>
<path d="M24.9829 52.6557L25.0744 52.4211" stroke="#222222" stroke-width="0.8" stroke-linecap="round" stroke-linejoin="round"/>
<path d="M24.9834 56.6601L25.0749 56.4255" stroke="#222222" stroke-width="0.8" stroke-linecap="round" stroke-linejoin="round"/>
<path d="M22.981 56.6601L23.0725 56.4255" stroke="#222222" stroke-width="0.8" stroke-linecap="round" stroke-linejoin="round"/>
<path d="M20.9785 56.6601L21.07 56.4255" stroke="#222222" stroke-width="0.8" stroke-linecap="round" stroke-linejoin="round"/>
<path d="M23.9824 54.6577L24.074 54.4231" stroke="#222222" stroke-width="0.8" stroke-linecap="round" stroke-linejoin="round"/>
<path d="M21.98 54.6577L22.0715 54.4231" stroke="#222222" stroke-width="0.8" stroke-linecap="round" stroke-linejoin="round"/>
<path d="M19.9775 54.6577L20.0691 54.4231" stroke="#222222" stroke-width="0.8" stroke-linecap="round" stroke-linejoin="round"/>
<path d="M22.981 52.6555L23.0725 52.4209" stroke="#222222" stroke-width="0.8" stroke-linecap="round" stroke-linejoin="round"/>
<path d="M20.9785 52.6555L21.07 52.4209" stroke="#222222" stroke-width="0.8" stroke-linecap="round" stroke-linejoin="round"/>
<path d="M18.9761 56.6603L19.0676 56.4258" stroke="#222222" stroke-width="0.8" stroke-linecap="round" stroke-linejoin="round"/>
<path d="M16.9741 56.6603L17.0657 56.4258" stroke="#222222" stroke-width="0.8" stroke-linecap="round" stroke-linejoin="round"/>
<path d="M19.9775 54.6579L20.0691 54.4233" stroke="#222222" stroke-width="0.8" stroke-linecap="round" stroke-linejoin="round"/>
<path d="M17.9751 54.6579L18.0666 54.4233" stroke="#222222" stroke-width="0.8" stroke-linecap="round" stroke-linejoin="round"/>
<path d="M15.9727 54.6579L16.0642 54.4233" stroke="#222222" stroke-width="0.8" stroke-linecap="round" stroke-linejoin="round"/>
<path d="M18.9761 52.6557L19.0676 52.4211" stroke="#222222" stroke-width="0.8" stroke-linecap="round" stroke-linejoin="round"/>
<path d="M16.9741 52.6557L17.0657 52.4211" stroke="#222222" stroke-width="0.8" stroke-linecap="round" stroke-linejoin="round"/>
<path d="M14.9712 56.6603L15.0627 56.4258" stroke="#222222" stroke-width="0.8" stroke-linecap="round" stroke-linejoin="round"/>
<path d="M12.9688 56.6603L13.0603 56.4258" stroke="#222222" stroke-width="0.8" stroke-linecap="round" stroke-linejoin="round"/>
<path d="M15.9722 54.6579L16.0637 54.4233" stroke="#222222" stroke-width="0.8" stroke-linecap="round" stroke-linejoin="round"/>
<path d="M13.9702 54.6579L14.0618 54.4233" stroke="#222222" stroke-width="0.8" stroke-linecap="round" stroke-linejoin="round"/>
<path d="M11.9678 54.6579L12.0593 54.4233" stroke="#222222" stroke-width="0.8" stroke-linecap="round" stroke-linejoin="round"/>
<path d="M14.9712 52.6557L15.0627 52.4211" stroke="#222222" stroke-width="0.8" stroke-linecap="round" stroke-linejoin="round"/>
<path d="M12.9688 52.6557L13.0603 52.4211" stroke="#222222" stroke-width="0.8" stroke-linecap="round" stroke-linejoin="round"/>
<path d="M14.9717 56.6603L15.0632 56.4258" stroke="#222222" stroke-width="0.8" stroke-linecap="round" stroke-linejoin="round"/>
<path d="M12.9692 56.6603L13.0608 56.4258" stroke="#222222" stroke-width="0.8" stroke-linecap="round" stroke-linejoin="round"/>
<path d="M10.9668 52.6557L11.0583 52.4211" stroke="#222222" stroke-width="0.8" stroke-linecap="round" stroke-linejoin="round"/>
<path d="M8.96436 52.6557L9.05589 52.4211" stroke="#222222" stroke-width="0.8" stroke-linecap="round" stroke-linejoin="round"/>
<path d="M10.9668 56.6603L11.0583 56.4258" stroke="#222222" stroke-width="0.8" stroke-linecap="round" stroke-linejoin="round"/>
<path d="M8.96436 56.6603L9.05589 56.4258" stroke="#222222" stroke-width="0.8" stroke-linecap="round" stroke-linejoin="round"/>
<path d="M11.9683 54.6579L12.0598 54.4233" stroke="#222222" stroke-width="0.8" stroke-linecap="round" stroke-linejoin="round"/>
<path d="M9.96582 54.6579L10.0574 54.4233" stroke="#222222" stroke-width="0.8" stroke-linecap="round" stroke-linejoin="round"/>
<path d="M7.96338 54.6579L8.05491 54.4233" stroke="#222222" stroke-width="0.8" stroke-linecap="round" stroke-linejoin="round"/>
<path d="M10.9668 52.6557L11.0583 52.4211" stroke="#222222" stroke-width="0.8" stroke-linecap="round" stroke-linejoin="round"/>
<path d="M8.96436 52.6557L9.05589 52.4211" stroke="#222222" stroke-width="0.8" stroke-linecap="round" stroke-linejoin="round"/>
<path d="M10.9668 56.6603L11.0583 56.4258" stroke="#222222" stroke-width="0.8" stroke-linecap="round" stroke-linejoin="round"/>
<path d="M8.96436 56.6603L9.05589 56.4258" stroke="#222222" stroke-width="0.8" stroke-linecap="round" stroke-linejoin="round"/>
<path d="M6.96191 52.6555L7.05345 52.4209" stroke="#222222" stroke-width="0.8" stroke-linecap="round" stroke-linejoin="round"/>
<path d="M6.96191 56.6603L7.05345 56.4258" stroke="#222222" stroke-width="0.8" stroke-linecap="round" stroke-linejoin="round"/>
<path d="M7.96338 54.6579L8.05491 54.4233" stroke="#222222" stroke-width="0.8" stroke-linecap="round" stroke-linejoin="round"/>
<path d="M5.96094 54.6579L6.05247 54.4233" stroke="#222222" stroke-width="0.8" stroke-linecap="round" stroke-linejoin="round"/>
<path d="M6.96191 52.6557L7.05345 52.4211" stroke="#222222" stroke-width="0.8" stroke-linecap="round" stroke-linejoin="round"/>
<path d="M6.96191 56.6601L7.05345 56.4255" stroke="#222222" stroke-width="0.8" stroke-linecap="round" stroke-linejoin="round"/>
<path d="M19.7197 23.876L25.106 30.5867C26.3732 32.1657 28.7332 32.2945 30.1634 30.8642L35.0091 26.0185C36.4393 24.5883 36.3135 22.237 34.7402 20.9669L28.0381 15.5605" stroke="#222222" stroke-width="1.5" stroke-linecap="round" stroke-linejoin="round"/>
<path d="M19.508 23.6644L16.3242 22.3886L25.2862 13.4267C25.6838 13.0291 26.356 13.1635 26.5705 13.6841L27.8291 15.3432" stroke="#222222" stroke-width="1.5" stroke-linecap="round" stroke-linejoin="round"/>
<path d="M32.9927 24.6227L33.0842 24.3882" stroke="#222222" stroke-width="0.8" stroke-linecap="round" stroke-linejoin="round"/>
<path d="M30.9902 24.6227L31.0818 24.3882" stroke="#222222" stroke-width="0.8" stroke-linecap="round" stroke-linejoin="round"/>
<path d="M28.9878 24.6227L29.0793 24.3882" stroke="#222222" stroke-width="0.8" stroke-linecap="round" stroke-linejoin="round"/>
<path d="M28.9878 28.6276L29.0793 28.3931" stroke="#222222" stroke-width="0.8" stroke-linecap="round" stroke-linejoin="round"/>
<path d="M29.9893 26.6252L30.0808 26.3906" stroke="#222222" stroke-width="0.8" stroke-linecap="round" stroke-linejoin="round"/>
<path d="M27.9868 26.6252L28.0784 26.3906" stroke="#222222" stroke-width="0.8" stroke-linecap="round" stroke-linejoin="round"/>
<path d="M26.9858 24.6227L27.0774 24.3882" stroke="#222222" stroke-width="0.8" stroke-linecap="round" stroke-linejoin="round"/>
<path d="M24.9834 24.6227L25.0749 24.3882" stroke="#222222" stroke-width="0.8" stroke-linecap="round" stroke-linejoin="round"/>
<path d="M26.9854 28.6276L27.0769 28.3931" stroke="#222222" stroke-width="0.8" stroke-linecap="round" stroke-linejoin="round"/>
<path d="M25.9844 26.6252L26.0759 26.3906" stroke="#222222" stroke-width="0.8" stroke-linecap="round" stroke-linejoin="round"/>
<path d="M26.9854 28.6274L27.0769 28.3928" stroke="#222222" stroke-width="0.8" stroke-linecap="round" stroke-linejoin="round"/>
<path d="M22.981 24.6227L23.0725 24.3882" stroke="#222222" stroke-width="0.8" stroke-linecap="round" stroke-linejoin="round"/>
<path d="M26.2023 28.7921L22.6589 24.3762H33.6295C33.5298 24.685 33.3575 24.975 33.1108 25.2218L29.3664 28.9662C28.4703 29.8623 26.9976 29.7819 26.2025 28.7923C26.2024 28.7922 26.2023 28.7922 26.2023 28.7921Z" stroke="#222222" stroke-linecap="round" stroke-linejoin="round"/>
<path d="M68.8315 29.7229C69.8442 33.4616 71.3488 35.8301 73.0336 35.8301C75.2248 35.8301 77.1127 31.8168 78.0052 26.0014C78.357 23.7273 78.5515 21.1786 78.5515 18.484C78.5515 15.7923 78.3599 13.2407 78.0052 10.9666C77.1127 5.15122 75.2248 1.13794 73.0336 1.13794C71.3659 1.13794 69.867 3.47211 68.8544 7.15643" stroke="#222222" stroke-width="1.5" stroke-linecap="round" stroke-linejoin="round"/>
<path d="M29.1966 44.6411C29.1966 44.2606 28.9506 43.9556 28.6503 43.9556H1.83884C1.53562 43.9556 1.29248 44.2642 1.29248 44.6411C1.29248 45.0215 1.53848 45.3265 1.83884 45.3265H28.6503C28.9535 45.3265 29.1966 45.0179 29.1966 44.6411Z" stroke="#222222" stroke-linecap="round" stroke-linejoin="round"/>
<path d="M16.3358 44.5289H14.917V22.6575C14.917 21.7479 15.5749 20.8354 17.1653 21.4561L16.3358 22.3085V44.5289Z" stroke="#222222" stroke-linecap="round" stroke-linejoin="round"/>
<path d="M25.2434 50.673V67.6186C25.2434 69.4522 23.7559 70.9368 21.9223 70.9368H8.54376C6.71305 70.9368 5.22559 69.4522 5.22559 67.6186V50.673H14.917V45.6243H16.3358V50.673H25.2434Z" stroke="#222222" stroke-linecap="round" stroke-linejoin="round"/>
</svg>
