<svg width="89" height="88" viewBox="0 0 89 88" fill="none" xmlns="http://www.w3.org/2000/svg">
<path d="M73.0224 57.1518C62.6168 49.3566 52.9789 47.1346 42.5823 52.5271C34.1006 45.59 21.771 50.9825 12.5034 57.1518C28.3377 80.0316 57.143 82.1091 73.0314 57.1518H73.0224Z" stroke="#222222" stroke-width="1.5" stroke-linecap="round" stroke-linejoin="round"/>
<path d="M73.0224 57.1518C62.6168 49.3566 52.9789 47.1346 42.5823 52.5271C34.1006 45.59 21.771 50.9825 12.5034 57.1518C28.3377 80.0316 57.143 82.1091 73.0314 57.1518H73.0224Z" fill="white" stroke="#222222" stroke-width="1.5" stroke-linecap="round" stroke-linejoin="round"/>
<path d="M12.4941 57.1519C12.4941 57.1519 40.7123 72.4894 73.0222 57.1519" stroke="#222222" stroke-width="1.5" stroke-linecap="round" stroke-linejoin="round"/>
<path d="M42.7627 32.2577V12.9006" stroke="#222222" stroke-width="1.5" stroke-linecap="round" stroke-linejoin="round"/>
<path d="M22.5566 33.7933L12.4941 17.5615" stroke="#222222" stroke-width="1.5" stroke-linecap="round" stroke-linejoin="round"/>
<path d="M63.1855 32.2577L75.5874 17.5615" stroke="#222222" stroke-width="1.5" stroke-linecap="round" stroke-linejoin="round"/>
</svg>
